<?xml version="1.0" encoding="UTF-8"?>
<svg id="Capa_1" xmlns="http://www.w3.org/2000/svg" version="1.1" viewBox="0 0 25 25">
  <!-- Generator: Adobe Illustrator 29.7.1, SVG Export Plug-In . SVG Version: 2.1.1 Build 8)  -->
  <defs>
    <style>
      .st0 {
        fill: #fcd1f6;
      }

      .st1 {
        fill: #ff4500;
      }
    </style>
  </defs>
  <ellipse class="st1" cx="11.98" cy="13.48" rx="18.51" ry="19.98" transform="translate(-1.67 25.26) rotate(-89.16)"/>
  <path class="st0" d="M15.99,14.32V2.5h3.99v12.09c0,1.02-.18,1.99-.55,2.91s-.92,1.73-1.65,2.45c-.73.71-1.63,1.26-2.7,1.66-1.07.4-2.32.6-3.74.6-1.1,0-2.17-.14-3.19-.42-1.03-.28-1.96-.71-2.78-1.27-.82-.57-1.48-1.29-1.98-2.16s-.77-1.89-.81-3.08h3.78c.22,1.14.78,2.01,1.69,2.6s2,.88,3.29.88c1.1,0,1.99-.2,2.67-.58s1.18-.92,1.5-1.59c.32-.67.48-1.42.48-2.26Z"/>
</svg>